<?xml version="1.0" encoding="utf-8"?>
<!-- Generator: Adobe Illustrator 24.1.3, SVG Export Plug-In . SVG Version: 6.00 Build 0)  -->
<svg version="1.1" id="Layer_1" xmlns="http://www.w3.org/2000/svg" xmlns:xlink="http://www.w3.org/1999/xlink" x="0px" y="0px"
	 viewBox="0 0 100 100" style="enable-background:new 0 0 100 100;" xml:space="preserve">
<style type="text/css">
	.st0{fill:none;stroke:#000000;stroke-width:4;stroke-linecap:round;stroke-linejoin:round;stroke-miterlimit:10;}
	.st1{stroke:#000000;stroke-width:4;stroke-linecap:round;stroke-linejoin:round;stroke-miterlimit:10;}
</style>
<g>
	<circle class="st0" cx="39.4" cy="41.63" r="35.93"/>
	<line class="st0" x1="65.71" y1="66.09" x2="96.54" y2="94.31"/>
	<path d="M56.4,38.54v6.18c0,0.6-0.49,1.09-1.09,1.09H44.67c-0.6,0-1.09,0.49-1.09,1.09v10.66c0,0.6-0.49,1.09-1.09,1.09H36.3
		c-0.6,0-1.09-0.49-1.09-1.09V46.89c0-0.6-0.49-1.09-1.09-1.09H23.48c-0.6,0-1.09-0.49-1.09-1.09v-6.18c0-0.6,0.49-1.09,1.09-1.09
		h10.65c0.6,0,1.09-0.49,1.09-1.09V25.7c0-0.6,0.49-1.09,1.09-1.09h6.19c0.6,0,1.09,0.49,1.09,1.09v10.66c0,0.6,0.49,1.09,1.09,1.09
		h10.65C55.92,37.45,56.4,37.94,56.4,38.54z"/>
</g>
</svg>
