<?xml version="1.0" encoding="utf-8"?>
<!-- Generator: Adobe Illustrator 24.1.3, SVG Export Plug-In . SVG Version: 6.00 Build 0)  -->
<svg version="1.1" id="Layer_1" xmlns="http://www.w3.org/2000/svg" xmlns:xlink="http://www.w3.org/1999/xlink" x="0px" y="0px"
	 viewBox="0 0 100 100" style="enable-background:new 0 0 100 100;" xml:space="preserve">
<style type="text/css">
	.st0{fill:none;stroke:#000000;stroke-width:4;stroke-linecap:round;stroke-linejoin:round;stroke-miterlimit:10;}
	.st1{stroke:#000000;stroke-width:4;stroke-linecap:round;stroke-linejoin:round;stroke-miterlimit:10;}
</style>
<g>
	<g>
		<path class="st0" d="M3.46,69.94l19.02-18.31L40.9,67.88l31.34-35.07L91.75,47V19.13c0-2.53-0.92-4.84-2.44-6.63
			c-1.87-2.2-4.66-3.59-7.77-3.59H13.67c-2.82,0-5.37,1.14-7.22,2.99c-1.85,1.85-2.99,4.4-2.99,7.22v57.82
			c0,2.74,1.08,5.24,2.84,7.07c1.86,1.94,4.47,3.14,7.37,3.14h33.93"/>
		<circle class="st0" cx="79.11" cy="73.66" r="17.43"/>
	</g>
	<path d="M88.28,70.87h-5.39c-0.27,0-0.49-0.22-0.49-0.49v-5.39c0-0.27-0.22-0.49-0.49-0.49H76.3c-0.27,0-0.49,0.22-0.49,0.49v5.39
		c0,0.27-0.22,0.49-0.49,0.49h-5.39c-0.27,0-0.49,0.22-0.49,0.49v5.62c0,0.27,0.22,0.49,0.49,0.49h5.39c0.27,0,0.49,0.22,0.49,0.49
		v5.39c0,0.27,0.22,0.49,0.49,0.49h5.62c0.27,0,0.49-0.22,0.49-0.49v-5.39c0-0.27,0.22-0.49,0.49-0.49h5.39
		c0.27,0,0.49-0.22,0.49-0.49v-5.62C88.77,71.09,88.55,70.87,88.28,70.87z"/>
</g>
</svg>
