<?xml version="1.0" encoding="utf-8"?>
<!-- Generator: Adobe Illustrator 24.1.3, SVG Export Plug-In . SVG Version: 6.00 Build 0)  -->
<svg version="1.1" id="Layer_1" xmlns="http://www.w3.org/2000/svg" xmlns:xlink="http://www.w3.org/1999/xlink" x="0px" y="0px"
	 viewBox="0 0 100 100" style="enable-background:new 0 0 100 100;" xml:space="preserve">
<style type="text/css">
	.st0{fill:none;stroke:#000000;stroke-width:4;stroke-linecap:round;stroke-linejoin:round;stroke-miterlimit:10;}
	.st1{stroke:#000000;stroke-width:4;stroke-linecap:round;stroke-linejoin:round;stroke-miterlimit:10;}
</style>
<g>
	<g>
		<path class="st0" d="M79.15,59.83H68.91c-4.02,0-7.27,3.26-7.27,7.27v0c0,4.02,3.26,7.27,7.27,7.27h4.85
			c4.02,0,7.27,3.26,7.27,7.27v0c0,4.02-3.26,7.27-7.27,7.27H62.78"/>
		<line class="st0" x1="71.34" y1="88.93" x2="71.34" y2="95.43"/>
		<line class="st0" x1="71.34" y1="59.83" x2="71.34" y2="53.07"/>
	</g>
	<path class="st0" d="M50,90.97c-21.01,0-38.04-17.03-38.04-38.04S28.99,14.9,50,14.9s38.04,17.03,38.04,38.04"/>
	<line class="st0" x1="42.02" y1="4.57" x2="57.45" y2="4.57"/>
	<line class="st0" x1="49.74" y1="14.9" x2="49.74" y2="4.57"/>
	<g>
		<line class="st0" x1="17.02" y1="19.44" x2="23.76" y2="24.93"/>
		<line class="st0" x1="82.98" y1="19.44" x2="76.24" y2="24.93"/>
	</g>
	<polyline class="st0" points="49.74,28.02 49.74,52.93 30.83,52.93 	"/>
</g>
</svg>
