<?xml version="1.0" encoding="utf-8"?>
<!-- Generator: Adobe Illustrator 24.1.3, SVG Export Plug-In . SVG Version: 6.00 Build 0)  -->
<svg version="1.1" id="Layer_1" xmlns="http://www.w3.org/2000/svg" xmlns:xlink="http://www.w3.org/1999/xlink" x="0px" y="0px"
	 viewBox="0 0 100 100" style="enable-background:new 0 0 100 100;" xml:space="preserve">
<style type="text/css">
	.st0{fill:none;stroke:#000000;stroke-width:4;stroke-linecap:round;stroke-linejoin:round;stroke-miterlimit:10;}
	.st1{stroke:#000000;stroke-width:4;stroke-linecap:round;stroke-linejoin:round;stroke-miterlimit:10;}
</style>
<g>
	<path class="st0" d="M80.2,96.04c4.11,0,7.83-1.67,10.52-4.36c2.69-2.69,4.36-6.41,4.36-10.52V19.94c0-4.24-1.65-8.09-4.34-10.95
		c-2.91-3.1-7.05-5.03-11.64-5.03H20.91c-3.49,0-6.71,1.12-9.34,3.01c-4.02,2.9-6.64,7.63-6.64,12.97v60.12c0,3.6,1.19,6.92,3.2,9.6
		c2.92,3.88,7.55,6.38,12.78,6.38H80.2z"/>
	<g>
		<polygon points="50,49.68 55.7,43.98 65.73,33.94 60.03,28.25 50,38.28 39.97,28.25 34.27,33.94 44.3,43.98 		"/>
		<polygon points="50,65.37 39.97,55.34 34.27,61.04 44.3,71.07 50,76.77 55.7,71.07 65.73,61.04 60.03,55.34 		"/>
	</g>
</g>
</svg>
