<svg width="30" height="30" viewBox="0 0 60 60" fill="none" xmlns="http://www.w3.org/2000/svg">
    <rect width="60" height="60" rx="30" fill="#f8954f" />
    <path
        d="M11.2698 27.5556C11.2698 28.0306 10.8739 28.3472 10.4781 28.3472C10.0823 28.3472 9.68652 28.0306 9.68652 27.5556C9.68652 27.4764 9.68652 27.3181 9.68652 27.2389C9.76568 26.9223 10.0823 26.6848 10.4781 26.6848C10.8739 26.764 11.2698 27.0806 11.2698 27.5556Z"
        fill="white"
    />
    <path
        d="M50.2174 30.0096C50.2174 41.2505 41.0346 50.3541 29.7937 50.3541H27.5772C25.3607 50.3541 23.6191 48.6125 23.6191 46.396V28.6638C23.6191 26.4473 25.3607 24.7058 27.5772 24.7058C29.7937 24.7058 31.5353 26.4473 31.5353 28.6638V42.2796C37.5515 41.4088 42.2221 36.2633 42.2221 29.9304C42.2221 23.0434 36.6808 17.5021 29.7937 17.5021C27.5772 17.5021 25.519 18.0562 23.7774 19.0853C21.6401 20.2727 19.8985 22.0934 18.7903 24.31C18.7111 24.4683 18.2361 25.4974 17.9195 26.5265C17.7612 26.9223 17.4445 27.1598 17.0487 27.0806C16.5738 27.0014 16.2571 26.5265 16.4154 26.1307C16.7321 24.7849 17.2071 23.9142 17.2862 23.835C17.4445 23.4392 17.2862 23.0434 16.8904 22.8851H16.8112C16.4154 22.7267 15.9405 22.8851 15.7821 23.2017C15.703 23.4392 15.5447 23.5975 15.4655 23.835C14.9114 25.1807 14.5156 26.6056 14.2781 28.0305C14.2781 28.1097 14.1989 28.8222 14.1989 28.9013C14.1989 29.2971 13.8031 29.6929 13.4073 29.6138C12.9323 29.6138 12.6157 29.218 12.6949 28.8222C12.774 27.4764 13.0907 26.0515 13.4073 24.8641C13.4073 24.7849 13.4073 24.7849 13.4865 24.7058C13.4865 24.3891 13.249 24.0725 12.9323 23.9142C12.5365 23.7558 12.1407 23.9933 11.9824 24.3891C11.9824 24.4683 11.7449 25.1016 11.6658 25.4182C11.5866 25.814 11.1908 26.0515 10.7158 25.9724C10.32 25.8932 10.0034 25.4974 10.0825 25.1016C10.32 24.2308 10.7158 23.0434 10.9533 22.3309C12.5365 18.3729 15.3863 15.0481 18.9486 12.7524C22.1151 10.7734 25.8356 9.58594 29.8729 9.58594C41.1138 9.58594 50.2174 18.7687 50.2174 30.0096Z"
        fill="white"
    />
</svg>