<?xml version="1.0" encoding="utf-8"?>
<!-- Generator: Adobe Illustrator 24.1.3, SVG Export Plug-In . SVG Version: 6.00 Build 0)  -->
<svg version="1.1" id="Layer_1" xmlns="http://www.w3.org/2000/svg" xmlns:xlink="http://www.w3.org/1999/xlink" x="0px" y="0px"
	 viewBox="0 0 100 100" style="enable-background:new 0 0 100 100;" xml:space="preserve">
<style type="text/css">
	.st0{fill:none;stroke:#000000;stroke-width:4;stroke-linecap:round;stroke-linejoin:round;stroke-miterlimit:10;}
	.st1{stroke:#000000;stroke-width:4;stroke-linecap:round;stroke-linejoin:round;stroke-miterlimit:10;}
</style>
<g>
	<g>
		<path class="st0" d="M49.89,47.85c6.19,0,8.21-8.31,8.78-11.83c0.17-1.03,0.24-2.07,0.13-3.11c-0.88-8.48-8.91-8.08-8.91-8.08
			s-7.56-0.38-8.81,7.33c-0.23,1.39-0.15,2.8,0.12,4.18C41.89,40.03,44.07,47.85,49.89,47.85z"/>
		<path class="st0" d="M30.59,74.96V65.8c0-10.94,12.53-11.91,12.53-11.91l6.77,9.24l6.99-9.24c0,0,12.53,0.97,12.53,11.91v9.16"/>
	</g>
	<polyline class="st0" points="95.43,47.85 95.43,12.55 4.57,12.55 4.57,74.96 37.49,74.96 49.89,87.45 61.11,74.96 95.43,74.96 
		95.43,60.89 	"/>
</g>
</svg>
