<?xml version="1.0" encoding="utf-8"?>
<!-- Generator: Adobe Illustrator 24.1.3, SVG Export Plug-In . SVG Version: 6.00 Build 0)  -->
<svg version="1.1" id="Layer_1" xmlns="http://www.w3.org/2000/svg" xmlns:xlink="http://www.w3.org/1999/xlink" x="0px" y="0px"
	 viewBox="0 0 100 100" style="enable-background:new 0 0 100 100;" xml:space="preserve">
<style type="text/css">
	.st0{fill:none;stroke:#000000;stroke-width:4;stroke-linecap:round;stroke-linejoin:round;stroke-miterlimit:10;}
	.st1{stroke:#000000;stroke-width:4;stroke-linecap:round;stroke-linejoin:round;stroke-miterlimit:10;}
</style>
<g>
	<path d="M52.01,29.92l5.66,11.47c0.32,0.65,0.94,1.1,1.66,1.21l12.66,1.84c1.81,0.26,2.53,2.48,1.22,3.76l-9.16,8.93
		c-0.52,0.51-0.76,1.24-0.63,1.95l2.16,12.61c0.31,1.8-1.58,3.17-3.2,2.32l-11.32-5.95c-0.64-0.34-1.41-0.34-2.05,0L37.68,74
		c-1.62,0.85-3.51-0.52-3.2-2.32l2.16-12.61c0.12-0.71-0.11-1.44-0.63-1.95l-9.16-8.93c-1.31-1.27-0.59-3.5,1.22-3.76l12.66-1.84
		c0.72-0.1,1.34-0.56,1.66-1.21l5.66-11.47C48.87,28.28,51.2,28.28,52.01,29.92z"/>
	<polyline class="st0" points="28.17,59.46 23.18,56.83 10.99,63.24 13.32,49.67 3.46,40.06 17.08,38.08 23.18,25.74 29.27,38.08 	
		"/>
	<polyline class="st0" points="71.83,59.46 76.82,56.83 89.01,63.24 86.68,49.67 96.54,40.06 82.92,38.08 76.82,25.74 70.73,38.08 	
		"/>
</g>
</svg>
