<?xml version="1.0" encoding="utf-8"?>
<!-- Generator: Adobe Illustrator 24.1.3, SVG Export Plug-In . SVG Version: 6.00 Build 0)  -->
<svg version="1.1" id="Layer_1" xmlns="http://www.w3.org/2000/svg" xmlns:xlink="http://www.w3.org/1999/xlink" x="0px" y="0px"
	 viewBox="0 0 100 100" style="enable-background:new 0 0 100 100;" xml:space="preserve">
<style type="text/css">
	.st0{fill:none;stroke:#000000;stroke-width:4;stroke-linecap:round;stroke-linejoin:round;stroke-miterlimit:10;}
	.st1{stroke:#000000;stroke-width:4;stroke-linecap:round;stroke-linejoin:round;stroke-miterlimit:10;}
</style>
<g>
	<path class="st0" d="M24.75,47.47L5.59,26.86c-0.27-0.29-0.42-0.66-0.44-1.04c-0.02-0.37,0.1-0.75,0.34-1.07
		c1.64-2.11,6.06-6.45,15.19-7.57c0.42-0.05,0.83,0.07,1.15,0.31c0.32,0.24,0.56,0.6,0.63,1.02l5.07,27.56
		c0.14,0.74-0.21,1.35-0.74,1.67C26.19,48.12,25.35,48.11,24.75,47.47z"/>
	<path class="st0" d="M34.65,50l7.92-16.13c0.2-0.41,0.54-0.69,0.93-0.83c0.48-0.17,1.03-0.11,1.48,0.23
		c2.11,1.58,5.91,5,8.74,10.82c0.2,0.41,0.2,0.86,0.04,1.26c-0.16,0.42-0.5,0.78-0.96,0.94l-16.13,5.94
		c-0.61,0.22-1.19,0.07-1.61-0.28C34.53,51.51,34.29,50.73,34.65,50z"/>
	<path class="st0" d="M22.77,54.73L5.69,49.29c-0.5-0.16-1.01-0.06-1.4,0.2c-0.39,0.27-0.67,0.7-0.71,1.22
		C3.33,53.7,3.26,59.58,5.69,65.5c0.18,0.44,0.54,0.75,0.97,0.88c0.42,0.14,0.9,0.1,1.32-0.13l15.1-8.56
		c0.57-0.32,0.84-0.89,0.82-1.44C23.88,55.6,23.49,54.96,22.77,54.73z"/>
	<path class="st0" d="M26.9,64.2l-9.73,13.88c-0.28,0.4-0.34,0.87-0.21,1.29c0.12,0.42,0.43,0.78,0.88,0.96
		c2.31,0.9,6.91,2.32,13.5,2.72c0.56,0.03,1.06-0.25,1.35-0.67c0.21-0.32,0.31-0.72,0.23-1.13l-3.28-16.48
		c-0.13-0.63-0.59-1.04-1.12-1.17C27.95,63.45,27.3,63.63,26.9,64.2z"/>
	<path class="st0" d="M36.35,61.07l9.87,13.61c0.22,0.31,0.54,0.51,0.88,0.59c0.43,0.1,0.89,0.03,1.27-0.25
		c2.02-1.5,5.87-5.25,7.6-12.9c0.09-0.4,0-0.8-0.21-1.11c-0.25-0.37-0.66-0.63-1.14-0.68l-16.86-1.63c-0.6-0.06-1.11,0.21-1.41,0.63
		C36,59.81,35.94,60.5,36.35,61.07z"/>
	<polyline class="st0" points="31.21,16.95 96.54,16.95 96.54,56.16 80.74,56.16 70.7,67.65 70.7,55.61 62.77,55.61 	"/>
	<line class="st0" x1="61.73" y1="42.12" x2="83.62" y2="42.12"/>
	<line class="st0" x1="61.73" y1="29.51" x2="72.67" y2="29.51"/>
</g>
</svg>
