<?xml version="1.0" encoding="utf-8"?>
<!-- Generator: Adobe Illustrator 24.1.3, SVG Export Plug-In . SVG Version: 6.00 Build 0)  -->
<svg version="1.1" id="Layer_1" xmlns="http://www.w3.org/2000/svg" xmlns:xlink="http://www.w3.org/1999/xlink" x="0px" y="0px"
	 viewBox="0 0 100 100" style="enable-background:new 0 0 100 100;" xml:space="preserve">
<style type="text/css">
	.st0{fill:none;stroke:#000000;stroke-width:4;stroke-linecap:round;stroke-linejoin:round;stroke-miterlimit:10;}
	.st1{stroke:#000000;stroke-width:4;stroke-linecap:round;stroke-linejoin:round;stroke-miterlimit:10;}
</style>
<g>
	<g>
		<g>
			<line class="st0" x1="30.65" y1="30.98" x2="81.53" y2="30.9"/>
			<line class="st0" x1="30.65" y1="50.08" x2="81.53" y2="50"/>
		</g>
		<path d="M16.54,27.29h3.79c0.82,0,1.48,0.66,1.48,1.48v4.41c0,0.82-0.66,1.48-1.48,1.48h-3.79c-0.82,0-1.48-0.66-1.48-1.48v-4.41
			C15.05,27.96,15.72,27.29,16.54,27.29z"/>
		<path d="M16.54,46.31h3.79c0.82,0,1.48,0.66,1.48,1.48v4.41c0,0.82-0.66,1.48-1.48,1.48h-3.79c-0.82,0-1.48-0.66-1.48-1.48v-4.41
			C15.05,46.97,15.72,46.31,16.54,46.31z"/>
		<path d="M16.54,65.41h3.79c0.82,0,1.48,0.66,1.48,1.48v4.41c0,0.82-0.66,1.48-1.48,1.48h-3.79c-0.82,0-1.48-0.66-1.48-1.48v-4.41
			C15.05,66.07,15.72,65.41,16.54,65.41z"/>
		<g>
			<line class="st0" x1="30.65" y1="69.17" x2="81.53" y2="69.1"/>
		</g>
	</g>
	<polyline class="st0" points="96.54,73.4 96.54,86.99 3.46,86.99 3.46,13.01 96.54,13.01 96.54,60.78 	"/>
</g>
</svg>
