<?xml version="1.0" encoding="utf-8"?>
<!-- Generator: Adobe Illustrator 24.1.3, SVG Export Plug-In . SVG Version: 6.00 Build 0)  -->
<svg version="1.1" id="Layer_1" xmlns="http://www.w3.org/2000/svg" xmlns:xlink="http://www.w3.org/1999/xlink" x="0px" y="0px"
	 viewBox="0 0 100 100" style="enable-background:new 0 0 100 100;" xml:space="preserve">
<style type="text/css">
	.st0{fill:none;stroke:#000000;stroke-width:4;stroke-linecap:round;stroke-linejoin:round;stroke-miterlimit:10;}
	.st1{stroke:#000000;stroke-width:4;stroke-linecap:round;stroke-linejoin:round;stroke-miterlimit:10;}
</style>
<g>
	<polyline class="st0" points="3.46,59.59 20.36,15.76 37.26,59.59 	"/>
	<line class="st0" x1="11.02" y1="42.5" x2="30.11" y2="42.5"/>
	<path class="st0" d="M52.19,34.22h6.01c2.18,0,4.19,0.7,5.78,1.86c2.21,1.62,3.63,4.13,3.63,6.96v7.71c0,2.53-1.14,4.82-2.96,6.42
		c-1.68,1.49-3.95,2.4-6.45,2.4h-8.51V15.76"/>
	<path class="st0" d="M96.54,34.22h-7.08c-3.04,0-5.75,1.35-7.47,3.45c-1.22,1.49-1.94,3.35-1.94,5.37v7.71
		c0,2.71,1.3,5.13,3.34,6.75c1.64,1.3,3.76,2.08,6.07,2.08h7.08"/>
	<path class="st0" d="M14.77,84.24c0,0,28.32-21.27,81.77-15.46"/>
</g>
</svg>
